
<svg xmlns="http://www.w3.org/2000/svg" viewBox="0 0 233.3 219.37"><defs><style>.cls-3{fill:#231f20;font-family:Vivaldii,Vivaldi;font-size:78.88px}</style></defs><g id="Layer_2" data-name="Layer 2"><g id="Layer_1-2" data-name="Layer 1"><path d="M4.11 132.24c24.2-12.47 50.25-20.57 76.88-25.93 13.27-2.67 26.66-4.7 40.09-6.35q9.9-1.2 19.81-2.17c3.6-.36 7.21-.69 10.82-1 1.51-.14 3-.14 4.55-.25 1.1-.08 1.44 2.36 1.7-.29l8.76-44.85c-.92 2.11-7.95 3-9.76 3.6l-23.14 7.1-52.74 16.23c-19.29 5.93-38.95 11.3-57.16 20.13-3.12 1.51-8.07 3.17-10.4 5.82-1.36 1.55-1.73 4.07-2.26 6A253.33 253.33 0 005.91 136c-.85 5-1.76 10.15-2.14 15.27-.1 1.4-.53 3.56.31 4.84 1.93 2.92 9.36 1.22 12.39 1.13l59.93-1.84 67.93-2.08 33-1 17-.52c2.08-.07 12-1.93 12.44 1.38l1.23-11.47-.13.79 7.62-35.94c-1.06 2.07-7.64 2.35-9.82 2.87l-13.21 3.12c-7.21 1.7-14.42 3.51-21.68 5-6.89 1.39-14.11 2.49-18.41 8.69-4.82 6.95-5.86 17-7.49 25-2.65 13.09-5.93 27.11-5.13 40.6.21 3.45.51 5.35 4.13 6a50 50 0 0011.07.65 94.71 94.71 0 0020.91-3.49c15.93-4.27 31.4-10.39 48.1-10.63 2.41 0 5.6-22 6-24.3.33-1.78 4-24.85 3.19-24.84-25.37.35-48.31 15.25-73.74 14.17-2.4-.1-6.35.09-8.47-1.14-2.37-1.37-1.59-5-1.7-7.45 1.17 27.21-15.11 47.5-5.65 33.89a13.91 13.91 0 013.35-3.28c4.85-3.45 11.17-4 16.82-5.19 7.45-1.62 14.85-3.42 22.26-5.17l9.44-2.24c3-.71 8.72-.9 10.95-3.18 2.69-2.74 3.14-9.39 3.87-12.65 2.27-10.1 4.22-20.34 5.49-30.61.25-2 1.55-6.84-.08-8.91-1.91-2.39-7.56-1-10.22-.87l-91.91 2.82L61.65 107l-27 .83-13 .4c-2.9.09-7.61 1.48-8.64-2.14l.08 3.49.07-.93-8.73 44.83c1.16-2.43 8-4.77 10.28-5.88 4.09-2 8.28-3.79 12.51-5.46 8.23-3.25 16.64-6 25.09-8.64 4.54-1.42 9.1-2.81 13.65-4.21L112.54 115 154 102.19a11.09 11.09 0 002.71-.91c3.61-2.28 4-9.88 4.84-13.5 2.6-11.43 5.79-24 5.93-35.78 0-3.18-.63-4.55-3.86-4.61-4.41-.09-9.13.82-13.52 1.26-8.71.86-17.42 1.83-26.09 3C85.8 56.66 47.79 65.34 13.33 83.1c-1.19.61-2.28 6.7-2.35 7-1.44 5.71-2.61 11.52-3.68 17.3S5.19 119 4.46 124.85c-.1.76-.42 7.43-.35 7.39z" fill="#ffde17"/><text transform="translate(8.42 96.43)" fill="#231f20" font-family="Vivaldii,Vivaldi" font-size="115">Art</text><text class="cls-3" transform="translate(57.72 148.51)">Web</text><text transform="translate(99.71 198.77)" font-size="72" fill="#231f20" font-family="Vivaldii,Vivaldi">Dev</text><text class="cls-3" transform="translate(9.43 141.63)">of</text></g></g></svg>